<svg xmlns="http://www.w3.org/2000/svg" xmlns:xlink="http://www.w3.org/1999/xlink" width="792.123" height="418.004" viewBox="0 0 792.123 418.004"><defs><style>.a,.d,.g,.h{fill:none;}.b{isolation:isolate;}.c,.j{fill:#a4cff7;}.c{opacity:0.25;}.d,.h{stroke:#fff;}.d,.g,.h{stroke-miterlimit:10;}.d{stroke-width:2px;}.e{fill:#4fae86;}.f{fill:#319188;}.g{stroke:#194459;}.i{fill:#21295b;}.k{fill:#2093e0;}.l{fill:#cfcfcf;mix-blend-mode:multiply;}.m{fill:#fff;}.n{fill:#b3b3b3;}.o{clip-path:url(#a);}.p{opacity:0.7;mix-blend-mode:overlay;fill:url(#b);}.q{fill:url(#c);}.r{fill:#8e5f20;}.s{fill:#42b2fc;}.t{fill:#133a50;}.u{fill:#fec4ad;}.v{fill:url(#d);}.w{fill:url(#e);}.x{fill:#471a16;}</style><clipPath id="a" transform="translate(26.099 -58.645)"><rect class="a" x="122.521" y="336.271" width="210.928" height="139.27" rx="14.222"/></clipPath><radialGradient id="b" cx="144.791" cy="386.22" r="87.311" gradientUnits="userSpaceOnUse"><stop offset="0" stop-color="#fff"/><stop offset="1" stop-color="#fff" stop-opacity="0"/></radialGradient><linearGradient id="c" x1="227.985" y1="336.271" x2="227.985" y2="423.211" gradientUnits="userSpaceOnUse"><stop offset="0" stop-color="#ffd71d"/><stop offset="1" stop-color="#feb200"/></linearGradient><linearGradient id="d" x1="427.477" y1="341.147" x2="487.9" y2="341.147" gradientTransform="matrix(-1, 0, 0, 1, 1031.414, 0)" gradientUnits="userSpaceOnUse"><stop offset="0" stop-color="#343a44"/><stop offset="0.301" stop-color="#232d3e"/><stop offset="0.639" stop-color="#182439"/><stop offset="1" stop-color="#142138"/></linearGradient><linearGradient id="e" x1="442.246" y1="332.907" x2="527.748" y2="332.907" xlink:href="#d"/></defs><g class="b"><path class="c" d="M62.42,317.127c-39.987,25.146-60.933,81.812-28.563,157.33H670.74c10.807-27.361,17.278-63.3,19.31-84.7,4.432-46.675-11.438-95.158-39.4-120.754-70.777-64.775-129.623,25.2-166.829-12.836-21.477-21.957-19.442-83.581-36.246-112.187-37.094-63.144-106.937-94.274-175.793-83.1C225.955,68.318,184.626,92.57,159.414,133.6c-34.532,56.19-9.395,96.447-24.637,135.283C117.783,312.177,89.135,300.327,62.42,317.127Z" transform="translate(26.099 -58.645)"/><path class="d" d="M269.561,227.2c-8.128,2.788-16.483,5.705-22.937,11.377s-10.613,14.85-7.894,23,14.047,12.9,20.6,7.334c2.353-2,3.806-5.428,2.543-8.244-2.5-5.569-11.2-2.958-15.284,1.582-4.839,5.385-7.916,12.749-6.718,19.889s7.433,13.556,14.673,13.55S272.1,284.763,265.9,281.019c-7.869-4.753-17.984,6.566-21.855,14.906s-1.452,19.63,6.458,24.315S276.974,319,272.112,311.2c-5.139-8.248-20.321,3.643-22.34,13.149s5.423,19.921,15.07,21.092,26.358-9.813,19.68-16.872c-9.65-10.2-25.735,15.774-21.091,29.025s23.83,18.525,34.6,9.51c2.017-1.689,3.836-4.1,3.462-6.707-.623-4.337-6.56-5.559-10.716-4.17-10.842,3.622-15.739,18.8-9.06,28.073s22.622,9.446,29.5.313c1.34-1.78,2.381-4.015,1.893-6.189-.68-3.035-4.276-4.75-7.333-4.175s-5.526,2.878-7.266,5.456c-6.186,9.162-4.1,22.927,4.526,29.843s22.514,5.965,30.114-2.063c1.981-2.092,3.619-4.891,3.1-7.724-.606-3.275-4.1-5.47-7.432-5.391s-6.385,1.988-8.7,4.387c-9.706,10.08-5.557,29.589,7.412,34.847s38.69-9.222,29.585-19.848c-6.081-7.1-18.079,8.253-16.544,17.471s12.138,15.5,21.177,13.127S382.682,429.013,375.7,422.8c-4.941-4.395-12.936,4.9-14.463,11.331a15.191,15.191,0,0,0,7.834,16.62c6.388,3.142,14.211,1.251,20.355-2.345s11.243-8.732,17.159-12.692a53.677,53.677,0,0,1,41-7.682" transform="translate(26.099 -58.645)"/><path class="e" d="M679.669,269.547c-13.163-8.4-130.507,90.52-126.207,168.674,0,0,22.845-30.85,42.756-45.885s21.853-30.773,21.814-46.359,29.74-9.15,33.094-26.438C657.061,288.946,691.516,277.109,679.669,269.547Z" transform="translate(26.099 -58.645)"/><path class="f" d="M687.378,342.36c-18.957,11.482-13.377,26.788-24.554,35.73-8.128,6.5-21.694,3.1-28.455,11.954-7.621,9.979,1.044,23.713,1.685,35.74.886,16.611-13.931,29.067-28.987,34.112-17.483,5.859-40.11,4.027-49.68-13.357-11.3-20.519-2.84-51.453,16.978-61.091,4.813-2.341,10.927-2.975,14.859-7.714,6.639-8,2.377-19.5,5.452-29.678,3-9.915,12.8-16.89,21.832-19.981s18.231-3.717,27.057-7.3c12.019-4.88,22.544-15.608,32.552-22.843,8.927-6.454,40.266-18.564,45.364,2.6C726.126,319.812,703.3,332.715,687.378,342.36Z" transform="translate(26.099 -58.645)"/><path class="g" d="M689.333,311.516s-77.486,38.941-139.31,164.59" transform="translate(26.099 -58.645)"/><path class="h" d="M736.127,370.206s-99.634-1.115-182.422,93.852" transform="translate(26.099 -58.645)"/><path class="e" d="M686.72,414.634c-9.5,3.8-12.071,19.808-22.3,21.84-7.437,1.478-15.374-5.109-22.642-1.691-8.19,3.851-6.748,15.4-10.1,23.246-4.626,10.837-18.37,13.914-29.949,12.206-13.445-1.982-27.891-10.527-28.789-24.688-1.06-16.715,14.262-33.6,30.443-33.257,3.929.084,8.187,1.675,12.285-.051,6.917-2.915,7.7-11.611,12.933-17.069,5.1-5.319,13.8-6.55,20.764-5.566s13.269,3.587,20.253,4.19c9.51.821,19.864-2.558,28.778-3.888,7.951-1.186,40.432-.56,29.3,16.449C719.994,418.132,699.375,409.569,686.72,414.634Z" transform="translate(26.099 -58.645)"/><path class="g" d="M707.207,398.948s-69.21,5.89-149.683,65.515" transform="translate(26.099 -58.645)"/><path class="f" d="M481.7,473.355s15.75-27.572,18.318-30.415c16.2-17.932,37.69-18.13,59.568-13.6,6.33,1.311,23.088,10.115,29.168,8.9,4.737-.949,10.422-18.949,25.582-18S630.4,439.184,630.4,439.184s9.508-20.916,24.668-18.985,15.159,16.05,3.79,26.519c0,0,24.16-7.249,47.61,3.979s12.249,25.951,12.249,25.951Z" transform="translate(26.099 -58.645)"/><path class="e" d="M60.256,269.547c13.164-8.4,130.507,90.52,126.207,168.674,0,0-22.845-30.85-42.756-45.885s-21.853-30.773-21.814-46.359-29.74-9.15-33.094-26.438C82.865,288.946,48.409,277.109,60.256,269.547Z" transform="translate(26.099 -58.645)"/><path class="f" d="M52.547,342.36C71.5,353.842,65.924,369.148,77.1,378.09c8.129,6.5,21.694,3.1,28.456,11.954,7.62,9.979-1.045,23.713-1.686,35.74-.885,16.611,13.931,29.067,28.988,34.112,17.482,5.859,40.109,4.027,49.68-13.357,11.3-20.519,2.839-51.453-16.979-61.091-4.813-2.341-10.927-2.975-14.859-7.714-6.639-8-2.377-19.5-5.452-29.678-3-9.915-12.8-16.89-21.832-19.981s-18.231-3.717-27.057-7.3c-12.019-4.88-22.544-15.608-32.552-22.843-8.927-6.454-40.266-18.564-45.364,2.6C13.8,319.812,36.622,332.715,52.547,342.36Z" transform="translate(26.099 -58.645)"/><path class="g" d="M50.592,311.516s77.486,38.941,139.31,164.59" transform="translate(26.099 -58.645)"/><path class="h" d="M3.8,370.206s99.634-1.115,182.422,93.852" transform="translate(26.099 -58.645)"/><path class="e" d="M53.205,414.634c9.5,3.8,12.071,19.808,22.3,21.84,7.437,1.478,15.375-5.109,22.642-1.691,8.19,3.851,6.748,15.4,10.1,23.246,4.625,10.837,18.369,13.914,29.949,12.206,13.444-1.982,27.89-10.527,28.788-24.688,1.06-16.715-14.262-33.6-30.442-33.257-3.93.084-8.188,1.675-12.285-.051-6.918-2.915-7.7-11.611-12.933-17.069-5.1-5.319-13.8-6.55-20.764-5.566s-13.269,3.587-20.253,4.19c-9.511.821-19.865-2.558-28.779-3.888-7.951-1.186-40.432-.56-29.3,16.449C19.931,418.132,40.551,409.569,53.205,414.634Z" transform="translate(26.099 -58.645)"/><path class="g" d="M32.718,398.948s69.21,5.89,149.683,65.515" transform="translate(26.099 -58.645)"/><path class="f" d="M258.23,473.355s-15.75-27.572-18.318-30.415c-16.2-17.932-37.69-18.13-59.567-13.6-6.331,1.311-23.089,10.115-29.169,8.9-4.737-.949-10.422-18.949-25.582-18s-16.072,18.949-16.072,18.949-9.509-20.916-24.669-18.985-15.159,16.05-3.789,26.519c0,0-24.161-7.249-47.611,3.979S21.2,476.648,21.2,476.648Z" transform="translate(26.099 -58.645)"/><path class="i" d="M427.955,475.757H403.446a5.2,5.2,0,0,1-5.181-4.77l-1.6-19.349h38.082l-1.605,19.349A5.2,5.2,0,0,1,427.955,475.757Z" transform="translate(26.099 -58.645)"/><path class="i" d="M572.67,475.757H548.161a5.2,5.2,0,0,1-5.181-4.77l-1.606-19.349h38.083l-1.605,19.349A5.2,5.2,0,0,1,572.67,475.757Z" transform="translate(26.099 -58.645)"/><path class="j" d="M576.918,426.249H399.2l12.567-91.62a14.435,14.435,0,0,1,14.3-12.473H550.05a14.435,14.435,0,0,1,14.3,12.473Z" transform="translate(26.099 -58.645)"/><path class="j" d="M552.933,408.477H423.183l9.217-92.042a13.385,13.385,0,0,1,13.318-12.051H530.4a13.384,13.384,0,0,1,13.318,12.051Z" transform="translate(26.099 -58.645)"/><polygon class="k" points="428.15 346.805 425.297 367.605 603.017 367.605 600.164 346.805 428.15 346.805"/><polygon class="j" points="622.252 403.149 406.062 403.149 410.064 356.18 618.25 356.18 622.252 403.149"/><circle class="l" cx="488.058" cy="361.659" r="39.553" transform="translate(-92.179 266.21) rotate(-33.065)"/><circle class="m" cx="488.058" cy="361.659" r="34.2" transform="translate(17.776 -47.134) rotate(-1.34)"/><path class="n" d="M497.617,389.786a4.462,4.462,0,0,1-3.146-1.294,3.582,3.582,0,0,1-.546-.685,4.407,4.407,0,0,1-.419-.761,6.173,6.173,0,0,1-.252-.824,5.1,5.1,0,0,1-.09-.876A4.454,4.454,0,0,1,498.479,381a4.8,4.8,0,0,1,.825.254,4.972,4.972,0,0,1,.774.406,4.763,4.763,0,0,1,.672.558,4.468,4.468,0,0,1,1.306,3.133,5.1,5.1,0,0,1-.089.876,6.173,6.173,0,0,1-.252.824,5.539,5.539,0,0,1-.407.761,4.178,4.178,0,0,1-.558.685,4.685,4.685,0,0,1-.672.546,3.481,3.481,0,0,1-.774.406,3.873,3.873,0,0,1-.825.254A4.089,4.089,0,0,1,497.617,389.786Z" transform="translate(26.099 -58.645)"/><path class="n" d="M483.854,391.346h0a4.44,4.44,0,0,1-3.769-5.023h0a4.439,4.439,0,0,1,5.023-3.767h0a4.454,4.454,0,0,1,3.769,5.023h0a4.448,4.448,0,0,1-4.4,3.818h0A3.418,3.418,0,0,1,483.854,391.346Zm-14.272-6.063h0a4.453,4.453,0,0,1-.761-6.241h0a4.437,4.437,0,0,1,6.228-.761h0a4.438,4.438,0,0,1,.762,6.228h0a4.416,4.416,0,0,1-3.5,1.713h0A4.42,4.42,0,0,1,469.582,385.283Zm-9.324-12.407a4.424,4.424,0,0,1,2.449-5.771h0a4.442,4.442,0,0,1,5.784,2.448h0a4.459,4.459,0,0,1-2.461,5.784h0a4.466,4.466,0,0,1-1.662.317h0A4.41,4.41,0,0,1,460.258,372.876Zm1.878-10.376a4.45,4.45,0,0,1-3.781-5.023h0a4.446,4.446,0,0,1,5.024-3.768h0a4.444,4.444,0,0,1,3.78,5.011h0a4.447,4.447,0,0,1-4.4,3.818h0A5.192,5.192,0,0,1,462.136,362.5Zm3.057-13.066a4.44,4.44,0,0,1-.774-6.228h0a4.431,4.431,0,0,1,6.229-.775h0a4.43,4.43,0,0,1,.773,6.229h0a4.413,4.413,0,0,1-3.5,1.713h0A4.42,4.42,0,0,1,465.193,349.434Zm35.849-4.415a4.429,4.429,0,0,1-.774-6.228h0a4.439,4.439,0,0,1,6.228-.786h0a4.454,4.454,0,0,1,.775,6.241h0a4.454,4.454,0,0,1-3.5,1.712h0A4.465,4.465,0,0,1,501.042,345.019Zm-26.678-5.378a4.426,4.426,0,0,1,2.448-5.772h0a4.443,4.443,0,0,1,5.785,2.448h0a4.449,4.449,0,0,1-2.461,5.785h0a4.439,4.439,0,0,1-1.661.317h0A4.423,4.423,0,0,1,474.364,339.641Zm16.605,1.116a4.439,4.439,0,0,1-3.767-5.023h0a4.426,4.426,0,0,1,5.011-3.768h0a4.427,4.427,0,0,1,3.78,5.011h0a4.445,4.445,0,0,1-4.39,3.818h0A5.2,5.2,0,0,1,490.969,340.757Z" transform="translate(26.099 -58.645)"/><path class="n" d="M511.748,356.551a4.911,4.911,0,0,1-.862-.089,4.624,4.624,0,0,1-.838-.254,5.483,5.483,0,0,1-.761-.406,4.935,4.935,0,0,1-.685-.558,4.456,4.456,0,0,1-1.294-3.133,4.128,4.128,0,0,1,.089-.876,3.882,3.882,0,0,1,.254-.824,4.392,4.392,0,0,1,.406-.774,4.687,4.687,0,0,1,.545-.673,4.173,4.173,0,0,1,.685-.545,4,4,0,0,1,.761-.418,4.548,4.548,0,0,1,4.834.963,3.969,3.969,0,0,1,.557.673,4.464,4.464,0,0,1,.407.774,3.882,3.882,0,0,1,.254.824,4.127,4.127,0,0,1,.088.876,4.461,4.461,0,0,1-4.44,4.44Z" transform="translate(26.099 -58.645)"/><path class="k" d="M437.059,217.592a18.971,18.971,0,0,1,3.809-19.84s32.164,20.838,68.111,14.96c0,0,3.942,10.841-7.108,20.881C501.871,233.593,463.391,240.89,437.059,217.592Z" transform="translate(26.099 -58.645)"/><path class="j" d="M492.116,171.46c-23.143-19.518-66.987-22.26-122.48-13.326C321.917,165.817,273.318,183.84,257.1,209.3c-7.388,11.594-2.371,43.8-2.371,43.8,43.959,2.746,60.06-35.045,60.06-35.045s-2.94-10.723,6.908-15.462c34.461-16.583,87.89-22.248,107.764-17.35a14.723,14.723,0,0,1,11.413,12.512s27.149,30.827,68.024,14.423C508.893,212.175,502.626,180.323,492.116,171.46Z" transform="translate(26.099 -58.645)"/><path class="k" d="M323.765,235.326a18.971,18.971,0,0,0-9.844-17.642s-24,29.88-59.974,35.582c0,0-.34,11.53,13.3,17.6C267.251,270.861,306.077,265.711,323.765,235.326Z" transform="translate(26.099 -58.645)"/><g class="o"><rect class="j" x="148.62" y="277.626" width="210.928" height="139.27" rx="14.222"/><path class="k" d="M333.449,354.754a18.483,18.483,0,0,0-18.483-18.483H141.005a18.483,18.483,0,0,0-18.484,18.483l95.647,77.539a15.413,15.413,0,0,0,19.4.011Z" transform="translate(26.099 -58.645)"/><path class="p" d="M134.832,461.168v-102.3a18.483,18.483,0,0,1,18.483-18.483H326.456a18.312,18.312,0,0,0-11.49-4.11H141.005a18.484,18.484,0,0,0-18.484,18.483v102.3a18.484,18.484,0,0,0,18.484,18.483h.821A18.369,18.369,0,0,1,134.832,461.168Z" transform="translate(26.099 -58.645)"/><path class="q" d="M216.329,418.813l-93.808-82.542H333.449l-93.807,82.542A17.646,17.646,0,0,1,216.329,418.813Z" transform="translate(26.099 -58.645)"/><path class="j" d="M216.329,418.813l-93.808-82.542H333.449l-93.807,82.542A17.646,17.646,0,0,1,216.329,418.813Z" transform="translate(26.099 -58.645)"/></g><path class="r" d="M396.57,252.021s6-17.324,6.424-19.231c2.487-11.257,3.163-35.662,3.007-40.852s-.639-9.747-.741-10.445-3.323-4.166-3.334-4.117a6.982,6.982,0,0,1-1,.107l-.039.651-1.391-1.2-1.16-.065-.123.543-1.654-.794-1.594-.029s1.028,3.295,1.614,5.3-.026,2.169-.026,2.169a4.363,4.363,0,0,1-1.786.331,12.423,12.423,0,0,0-2.265-.1s4.847,6.305,5.07,6.89a11.412,11.412,0,0,1,1.949,9.122c-1.849,10.15-6.9,25.224-6.9,25.224.15-.355-6.524,18.7-6.524,18.7Z" transform="translate(26.099 -58.645)"/><path class="s" d="M393.344,274.952c1.859-14.581,9.319-31.607,9.319-31.607s-11.4-2.258-14.347-6.313c0,0-3.93,9.6-6.19,14.369-2.5,5.283-6.009,11.034-1.6,14.171C384.781,268.6,392.7,280.03,393.344,274.952Z" transform="translate(26.099 -58.645)"/><path class="t" d="M349.641,466.323V475.7h18.015s-.677-3.392-9.22-4.958l-1.257-4.415Z" transform="translate(26.099 -58.645)"/><path class="t" d="M377.041,466.323V475.7h18.015s-.677-3.392-9.221-4.958l-1.256-4.415Z" transform="translate(26.099 -58.645)"/><path class="t" d="M352.669,326.789s-2.521,26.193-2.609,50.814-1.555,90.866-1.555,90.866h9.943s10.251-63.783,13.978-79.611,13.417-61.773,13.417-61.773Z" transform="translate(26.099 -58.645)"/><path class="u" d="M367.955,239.92s-.644,5.012-1.171,7.562a20.387,20.387,0,0,1-1.358,4.673c-.861,1.727-6.15,6.985-6.15,6.985s16.485,8.7,21.331,8.7,3.148-9.721,3.148-9.721-5.285-4.177-6.072-6.287-1.227-8.222-1.227-8.222Z" transform="translate(26.099 -58.645)"/><path class="t" d="M374.29,355.213s1.863,41.514,2.236,48.9,0,64.32,0,64.32,9.317.251,9.317,0,8.784-64.628,9.922-82.829.472-39.778,1.983-42.295-4.079-16.4-4.079-16.4l-13.187-.482Z" transform="translate(26.099 -58.645)"/><path class="s" d="M362.634,254.24s-13.918-5.585-16.22-1c-1.739,3.465-.243,25.735.53,31.959.673,5.413,4.42,50.954,4.42,50.954s5.2,8.06,30.238,4.851c9.654-1.238,14.4-5.943,14.4-5.943s-2.707-54.34-3.452-59.792a117.456,117.456,0,0,0-3.322-13.962l-7.452-4.906s2.375,5.246-4.349,6.741C363.874,266.153,362.634,254.24,362.634,254.24Z" transform="translate(26.099 -58.645)"/><path class="u" d="M381.13,220.973c1.579.633,4.336,2.057,4.645,3.372a52.31,52.31,0,0,1,1.572,7.45c.146,2.314.477,6.688.474,9.414s-1.649,8.243-2.271,8.826-5.2,1.532-6.749,1.09-10.633-5.142-11.2-10.9c0,0-1.61.848-4.572-3.953-.772-1.252,1.893-10.552,2.251-12.21.869-4.029,10.805-.854,13.033-1.49S381.13,220.973,381.13,220.973Z" transform="translate(26.099 -58.645)"/><path class="t" d="M385.775,224.345s-6.961,4.358-9.676,4.583-6.7,3.957-6.631,5.114A2.516,2.516,0,0,1,368.324,236s-1.69-2.693-3.075-2.413c-2.744.555-1.132,3.938.357,4.682a23.09,23.09,0,0,0,2.936,1.2,14.245,14.245,0,0,1,.13,2.9,13.31,13.31,0,0,1-1.16,3.4s-3.213-6.764-6.094-9.289c-6.849-6-1.891-17.153,4.857-19.248,2.724-.846,10.2-1.407,13.847.225A9.922,9.922,0,0,1,385.775,224.345Z" transform="translate(26.099 -58.645)"/><path class="i" d="M371.193,233.877c.1.273.815.323.946.381.285.125.161.168,1.415,2.086.925,1.414,2.474,1.871,5.369.9,2.211-.74,1.9-2.639,2.06-3.546s.347-1.058.7-1.118.544.022,1,.82.667,2.856,2.976,2.51c1.592-.239,2.012-.679,2.228-1.938a13.217,13.217,0,0,0,.182-3.051c-.063-.834-.081-1.342-.5-1.387a7.775,7.775,0,0,0-1.9.209c-1.378.242-2.37.269-3.117.81s-.664.873-1.057.947-.47-.269-1.357-.523-4.559.39-5.937.632-3.27.759-3.231,1.28A3.917,3.917,0,0,0,371.193,233.877Zm11.906-2.052c.07-.675.123-.6,1.826-.991s1.882-.313,2.225-.042a3.629,3.629,0,0,1,.422,2.748,1.884,1.884,0,0,1-1.644,1.974c-1.5.263-1.85-.48-2.274-1.52A6.453,6.453,0,0,1,383.1,231.825Zm-9.925,1.109c.23-.372,2.537-.686,4.271-.9s2.312-.286,2.607.325a6.4,6.4,0,0,1,.218,2.229c-.044,1.122-.264,2.1-2.968,2.591-1.907.345-2.831-.186-3.618-1.611A3.164,3.164,0,0,1,373.174,232.934Zm-5.786,1.721,3.805-.778L372.479,232s-1.461.208-3.877.745a7.384,7.384,0,0,0-2.291,1.08A3.719,3.719,0,0,1,367.388,234.655Z" transform="translate(26.099 -58.645)"/><path class="r" d="M337.38,253.613s-3.293-20.86-3.324-22.813c-.189-11.527,5.655-27.014,6.844-32.068s1.982-4.255,2.222-4.919,8.61-1.945,8.61-1.945a22.266,22.266,0,0,1,2.777-.993c.526-.051,2.735-.712,2.735-.712l-1.284,2.31s-5.22,3.97-5.556,4.5a11.413,11.413,0,0,0-3.732,8.549c-.215,10.315-.181,21.488-.181,21.488-.077-.377,4.938,21.361,4.938,21.361Z" transform="translate(26.099 -58.645)"/><path class="s" d="M346.944,285.2C343.4,275.146,335.3,248.146,335.3,248.146s12.048-3.033,15.447-6.717c0,0,4.066,12.073,5.755,17.076,1.868,5.539,4.682,11.66-.061,14.261C351.859,275.279,348.646,290.026,346.944,285.2Z" transform="translate(26.099 -58.645)"/><path class="v" d="M579.954,302.047c3.129,2.911,5.34,1.937,10.037,18.015,3,10.273,13.946,62.084,13.946,62.084l-6.539,2.838c-8.84-24.766-8.829-24.742-19.159-44.842a89.479,89.479,0,0,1-7.105-19.354l-19.1-1.146c-11.939-4.906-7.847-22.332-7.847-22.332S576.824,299.136,579.954,302.047Z" transform="translate(26.099 -58.645)"/><path class="w" d="M507.614,286.643l17.23-11.034,16.669,12.948,20.761,6.706-.112.063c8.351,2.9,17.886,7.123,20.813,9.846,3.129,2.912,9.294,7.044,4.322,23.04-3.176,10.22-17.024,61.993-17.024,61.993l-7.017-1.249s2.492-30,4.99-52.441c1.21-10.879,1.621-13.913,1.621-13.913s-46.357,5.054-61.291-2.833C498.122,314.247,507.614,295.008,507.614,286.643Z" transform="translate(26.099 -58.645)"/><path class="t" d="M570.762,386.454s-.2,1.884-3.223,2.735a5.137,5.137,0,0,1-5.074-1.645L561.8,393.7l9.641,6.8h8.009l-4.333-4.808Z" transform="translate(26.099 -58.645)"/><path class="t" d="M602.9,377.925a3.31,3.31,0,0,1-1.2,4.368,5.138,5.138,0,0,1-5.334-.021l1.237,6.067,22.77-7.123Z" transform="translate(26.099 -58.645)"/><path class="r" d="M576.691,224.547c-.037.327-3.793-4.515-3.793-4.515l-.875-3.964s-1.534-2.051-2.719-3.289-2.238-6.548-2.238-6.548l1.541-.929a19.121,19.121,0,0,0,1.217,2.9,2.745,2.745,0,0,0,1.5.611,28.888,28.888,0,0,0,.046-3.693,32.367,32.367,0,0,0-1.409-6.232l1.285-.627a28.086,28.086,0,0,1,1.232,2.857c.272.9.746,2.765.746,2.765a31.084,31.084,0,0,0-.393-4.222c-.3-1.218-.524-2.8-.524-2.8l1.346-.345a25.7,25.7,0,0,1,.894,3.405c.216,1.4.7,3.758.7,3.758a40.576,40.576,0,0,0,.051-4.3,14.332,14.332,0,0,1-.14-1.513l1.43.038a10.9,10.9,0,0,1,.506,3.237,15.059,15.059,0,0,0,.144,2.573,16.22,16.22,0,0,0,.4-3.509,3,3,0,0,1-.052-1.191l1.1.188s.626,4.373.825,7.015-.119,5.99-.144,7.858-.072,3.327-.072,3.327Z" transform="translate(26.099 -58.645)"/><path class="r" d="M547.494,229.667a173.576,173.576,0,0,0,17.772,12.694s3.306-8.291,4.882-14.166c1.881-7.014,2.433-10.246,2.433-10.246l6.7-.548s-2.124,17.938-4.762,30.107c-2.564,11.828-5.787,9.714-8.622,9.134s-29.514-14.915-29.514-14.915l2.856-15.234S541.142,224.448,547.494,229.667Z" transform="translate(26.099 -58.645)"/><path class="x" d="M519.3,186.587c1.424-.814,8.316-1.381,12.632,1.277,8.252,5.081,4.291,19,3.775,22.211s2.443,8.984,2.4,12.813-.962,5.217-3.82,8.926a7.1,7.1,0,0,0-1.067,2.96,27.338,27.338,0,0,1-3.84-11.317c-.676-6.586-2.076-5.05-5.37-12.285s-3.441-18.13-3.441-18.13Z" transform="translate(26.099 -58.645)"/><path class="x" d="M526.165,191.307l-6.863-4.72a10.033,10.033,0,0,0-9.267,4.431c-3.4,5.216-4.59,12.767-5.356,18.441s-2.764,16.341-2.627,20.573,5.277,4.808,5.277,4.808l17.242-7.459a51.192,51.192,0,0,1-.16-18.729A92.862,92.862,0,0,0,526.165,191.307Z" transform="translate(26.099 -58.645)"/><path class="r" d="M531.907,192.75c.359,2.145,2.022,8.448,2.188,12.491s-.316,10.7-2.994,12.542-7.706.371-11.386-1.151-4.57-4.105-5.288-6.478-.465-8.675.375-13.191,3.708-6.335,7.03-6.958S531.907,192.75,531.907,192.75Z" transform="translate(26.099 -58.645)"/><path class="r" d="M516.87,207.794s.941,10.048-1.173,14.778c-1.458,3.263-7.366,4.647-7.366,4.647a33.316,33.316,0,0,0,5.707,17.764c5.929,8.726,24.469,11.955,24.469,11.955a80.894,80.894,0,0,0,5.535-15.448c1.913-8.164-3.266-14.471-3.266-14.471s-5.013-1.64-7.418-2.546c-5.842-2.2-5.158-11.486-5.158-11.486Z" transform="translate(26.099 -58.645)"/><path class="s" d="M528.135,231.084s-11.986-3.044-15.588-5.383l-11.887,7.065s-6.982,6.664,4.934,24.176c0,0,4.523,15.953-2.818,44.056,0,0,1.983,7.239,13.117,3.385,9.585-3.317,9.8-5.91,18.2-8.04,12.395-3.144,15.656-5.077,15.656-5.077-6.511-9.784-5.354-25.064-5.354-25.064s7.383-7.066,4.218-14.287c-4.567-10.425-6.1-25.175-6.1-25.175l-6.362-1.613a47.964,47.964,0,0,1-5.082,5.412A2.722,2.722,0,0,1,528.135,231.084Z" transform="translate(26.099 -58.645)"/><path class="m" d="M533.358,224.473s-1.46,5.432-5.223,6.611c0,0,1.472,7.44,5,6.147,4.947-1.814,3.019-12.1,3.019-12.1Z" transform="translate(26.099 -58.645)"/><path class="m" d="M511.114,224.787s2.348,11.364,8.626,12.283,8.395-5.986,8.395-5.986-13.309-3.9-14.61-7.976Z" transform="translate(26.099 -58.645)"/><path class="x" d="M522.177,189.9c-1.157.075-2.012,5.551-2.129,8.607s-4.691,5.466-2.672,12.189,1.746,13.213,4.452,20.58-.664,10.065-2.126,12.6c0,0-5.795-6.345-7.754-9.525a7.645,7.645,0,0,0-8.283-3.711s8.844-17.178,8.546-21.81-1.117-11.7,2.57-15.932S522.177,189.9,522.177,189.9Z" transform="translate(26.099 -58.645)"/><path class="r" d="M517.524,203.613s-2.46-2.693-4.083-2.282-1.725,2.845-.489,4.839,5.811,3.12,5.811,3.12Z" transform="translate(26.099 -58.645)"/><path class="x" d="M523.118,198.37c2.23.2,3.5-.122,6.98-.5,4.458-.49,6.337.654,6.337.654l-1.686-7.414s-5.205-2.893-8.891-2.867c-4.693.032-8.8,1.828-6.475,3.345C521.845,193.188,523.118,198.37,523.118,198.37Z" transform="translate(26.099 -58.645)"/><path class="r" d="M510.75,241.073c-.8,9.3-3.531,35.806-3.531,35.806,8.463,7.4,20.444,19.717,20.444,19.717s-3.41,6.725-4.869,5.584c-11.661-9.116-24.99-14.511-25.942-20.858-1.563-10.423-2.1-36.649,1.737-45.179C501.547,229.569,511.6,231.207,510.75,241.073Z" transform="translate(26.099 -58.645)"/><path class="r" d="M532.8,297.417c3.544,1.332,5.774,2.637,5.563,3.958-.147.912-3.171-.753-4.981-.695a10.063,10.063,0,0,0,4.307,4.227c2.341,1.151,3.651,2.752,2.4,4.106s-3.563,3.25-5.071,2.556-6.858-4.43-8.872-5.465-2.821-3.567-3.858-4.263,1.9-6.023,1.9-6.023c.558.155,3.48.778,3.48.778a18.559,18.559,0,0,0,2.9.242A7.094,7.094,0,0,1,532.8,297.417Z" transform="translate(26.099 -58.645)"/><line class="g" y1="416.417" x2="792.123" y2="416.417"/></g></svg>